#!OML:ASF F:\VICON\USERDATA\INSTALL\rory3\rory3.ASF
:FULLY-SPECIFIED
:DEGREES
381
root 0.791227 17.7148 37.4591 -1.26865 1.43905 0.127727
lowerback 5.65745 -2.13147 -2.57358
upperback -0.0781308 -2.92029 2.90832
thorax -2.97126 -1.39847 4.69174
lowerneck -14.8889 -2.58941 -2.05968
upperneck 19.9498 -3.36358 1.16203
head 8.74537 -1.61936 0.335778
rclavicle -3.85145e-015 -8.74653e-015
rhumerus -35.3075 -16.9597 -76.4267
rradius 26.5842
rwrist 5.99997
rhand -12.6125 20.6618
rfingers 7.12502
rthumb 13.4667 -8.88281
lclavicle -3.85145e-015 -8.74653e-015
lhumerus -30.8843 -5.00176 82.3111
lradius 34.4561
lwrist 3.1547
lhand -23.2882 29.0522
lfingers 7.12502
lthumb 3.1648 59.0084
rfemur -28.3758 6.10774 21.1645
rtibia 25.5287
rfoot -4.37199 -7.35019
rtoes -15.031
lfemur 17.2783 -6.33653 -25.026
ltibia 22.4748
lfoot -11.8184 -4.81828
ltoes -33.8014
382
root 0.775567 17.7292 37.6736 -1.4824 1.41138 -0.0121686
lowerback 5.63185 -2.09372 -2.3836
upperback -0.00647698 -2.85671 2.93679
thorax -2.8967 -1.37213 4.60574
lowerneck -14.9431 -2.58585 -2.04684
upperneck 19.9909 -3.36839 1.19361
head 8.7697 -1.61677 0.342851
rclavicle 1.76794e-014 -1.03368e-014
rhumerus -35.6074 -17.1705 -76.275
rradius 26.5857
rwrist 5.52181
rhand -12.738 21.5952
rfingers 7.12502
rthumb 13.3458 -7.95738
lclavicle 1.76794e-014 -1.03368e-014
lhumerus -31.0441 -4.59429 82.4438
lradius 33.7967
lwrist 2.88587
lhand -23.1156 27.3331
lfingers 7.12502
lthumb 3.33142 57.2868
rfemur -27.7638 5.60806 21.5969
rtibia 26.1504
rfoot -3.73863 -6.80341
rtoes -13.0442
lfemur 17.1549 -6.60706 -24.9305
ltibia 24.3939
lfoot -10.325 -5.70867
ltoes -32.2697
383
root 0.752523 17.7464 37.8664 -1.59496 1.27475 -0.379056
lowerback 5.89701 -2.03371 -2.03531
upperback -0.0723594 -2.75135 3.03387
thorax -3.13534 -1.31772 4.51762
lowerneck -15.2135 -2.55818 -2.08089
upperneck 20.1782 -3.3516 1.3359
head 8.88618 -1.59389 0.394369
rclavicle 3.90488e-014 -4.29375e-014
rhumerus -35.7518 -18.0009 -75.8512
rradius 26.099
rwrist 6.02016
rhand -12.6878 21.7462
rfingers 7.12502
rthumb 13.3942 -7.80327
lclavicle 3.90488e-014 -4.29375e-014
lhumerus -31.3575 -4.01136 82.5214
lradius 33.3601
lwrist 2.93391
lhand -23.5116 26.5504
lfingers 7.12502
lthumb 2.949 56.5098
rfemur -27.421 5.44075 22.251
rtibia 26.8312
rfoot -3.43373 -6.31584
rtoes -11.2297
lfemur 16.6177 -6.74603 -24.4578
ltibia 26.4223
lfoot -8.8042 -6.76738
ltoes -30.7372
384
root 0.720843 17.7622 38.0537 -1.59735 1.05199 -1.04907
lowerback 6.2087 -2.00509 -1.56551
upperback -0.240961 -2.66883 3.29687
thorax -3.50175 -1.27252 4.5412
lowerneck -15.4278 -2.52264 -2.13541
upperneck 20.4024 -3.30023 1.3863
head 9.00348 -1.5666 0.423187
rclavicle 2.57302e-014 -5.56597e-015
rhumerus -35.8326 -18.4748 -75.4757
rradius 25.5399
rwrist 6.28771
rhand -12.5629 21.8764
rfingers 7.12502
rthumb 13.5145 -7.66504
lclavicle 2.57302e-014 -5.56597e-015
lhumerus -31.9781 -3.32062 82.5775
lradius 33.2887
lwrist 3.01735
lhand -23.4868 26.636
lfingers 7.12502
lthumb 2.97303 56.595
rfemur -27.3309 5.50336 23.2464
rtibia 27.6894
rfoot -3.7512 -5.5688
rtoes -10.39
lfemur 15.6558 -6.41558 -23.4082
ltibia 28.3879
lfoot -7.32002 -8.29842
ltoes -32.4238
385
root 0.695917 17.7797 38.2624 -1.87611 0.976366 -0.796047
lowerback 6.5209 -1.97296 -1.92186
upperback -0.307741 -2.65514 3.22465
thorax -3.73527 -1.25377 4.68381
lowerneck -15.5437 -2.59555 -2.00296
upperneck 20.6197 -3.38287 1.14951
head 9.09436 -1.61974 0.307788
rclavicle 4.72114e-014 -2.38542e-014
rhumerus -36.0189 -18.827 -75.2454
rradius 25.1606
rwrist 6.36905
rhand -12.5634 22.1132
rfingers 7.12502
rthumb 13.514 -7.42832
lclavicle 4.72114e-014 -2.38542e-014
lhumerus -32.7099 -2.76507 82.5502
lradius 33.2258
lwrist 2.78801
lhand -22.9596 27.2186
lfingers 7.12502
lthumb 3.4821 57.1699
rfemur -26.8118 5.30099 23.227
rtibia 28.4848
rfoot -3.97838 -4.47669
rtoes -7.6107
lfemur 14.9725 -5.85884 -23.4051
ltibia 30.3658
lfoot -5.7736 -10.2436
ltoes -36.0127
386
root 0.672675 17.7927 38.4747 -2.23114 1.03883 -0.210839
lowerback 6.67503 -1.93655 -2.57165
upperback -0.253626 -2.66684 3.03651
thorax -3.74428 -1.2493 4.86155
lowerneck -15.6794 -2.71081 -1.75216
upperneck 20.7784 -3.50077 0.690214
head 9.16226 -1.70469 0.0919046
rclavicle 3.67752e-015 1.59028e-015
rhumerus -36.0888 -19.1903 -75.0583
rradius 24.8805
rwrist 6.39776
rhand -12.4352 21.88
rfingers 7.12502
rthumb 13.6376 -7.65323
lclavicle 3.67752e-015 1.59028e-015
lhumerus -33.3107 -2.43285 82.5864
lradius 33.0642
lwrist 2.76605
lhand -22.1725 28.2099
lfingers 7.12502
lthumb 4.24224 58.1474
rfemur -26.1216 5.02787 22.8205
rtibia 29.2208
rfoot -4.06132 -3.77393
rtoes -4.41185
lfemur 14.4896 -5.54208 -23.806
ltibia 32.3028
lfoot -3.68148 -12.255
ltoes -38.0133
387
root 0.641594 17.8145 38.672 -2.3062 1.06762 -0.529411
lowerback 6.69912 -1.90735 -2.31977
upperback -0.282014 -2.60506 3.10475
thorax -3.8015 -1.22095 4.78693
lowerneck -15.6825 -2.71066 -1.60454
upperneck 20.8332 -3.48044 0.43951
head 9.17366 -1.71113 -0.0160641
rclavicle 1.13307e-014 -7.95139e-015
rhumerus -36.3541 -19.2443 -74.9617
rradius 24.9607
rwrist 6.18304
rhand -12.3867 21.6881
rfingers 7.12502
rthumb 13.6844 -7.84199
lclavicle 1.13307e-014 -7.95139e-015
lhumerus -33.8486 -2.22655 82.6886
lradius 32.8995
lwrist 2.78919
lhand -22.2364 29.7126
lfingers 7.12502
lthumb 4.18045 59.6513
rfemur -25.7344 5.13434 23.3903
rtibia 29.9462
rfoot -4.15927 -3.8008
rtoes -2.43028
lfemur 13.465 -5.55745 -23.1404
ltibia 34.2171
lfoot -0.37461 -14.0419
ltoes -36.0184
388
root 0.613632 17.8418 38.8652 -2.35152 1.18375 -1.168
lowerback 6.91048 -1.89177 -1.68631
upperback -0.430089 -2.52573 3.24379
thorax -4.10313 -1.18406 4.58169
lowerneck -15.3692 -2.6782 -1.67095
upperneck 20.6308 -3.46097 0.612012
head 9.05047 -1.69032 0.0622992
rclavicle 1.36113e-014 1.27222e-014
rhumerus -37.0057 -19.111 -74.8915
rradius 25.4544
rwrist 5.90145
rhand -12.2826 21.6458
rfingers 7.12502
rthumb 13.7847 -7.8775
lclavicle 1.36113e-014 1.27222e-014
lhumerus -34.4752 -2.22043 82.8219
lradius 32.7729
lwrist 2.70793
lhand -22.306 30.2053
lfingers 7.12502
lthumb 4.11326 60.1453
rfemur -25.2793 5.17 24.315
rtibia 30.5272
rfoot -4.30217 -3.81686
rtoes -0.903918
lfemur 12.3611 -5.60334 -22.051
ltibia 36.2745
lfoot 3.00125 -15.8146
ltoes -33.4282
389
root 0.590566 17.8505 39.0529 -2.47087 1.50068 -1.48425
lowerback 7.21274 -1.92225 -1.35561
upperback -0.489414 -2.53382 3.30677
thorax -4.34586 -1.18878 4.47807
lowerneck -15.5073 -2.73762 -1.84072
upperneck 20.5785 -3.55132 0.847875
head 9.06705 -1.71917 0.157932
rclavicle 2.01316e-014 -7.15625e-015
rhumerus -37.2422 -19.359 -74.768
rradius 25.549
rwrist 6.11385
rhand -12.2853 21.7454
rfingers 7.12502
rthumb 13.7821 -7.77807
lclavicle 2.01316e-014 -7.15625e-015
lhumerus -34.908 -2.34471 83.0645
lradius 32.577
lwrist 2.6583
lhand -22.1839 29.7118
lfingers 7.12502
lthumb 4.23119 59.6495
rfemur -24.4983 5.17118 24.8333
rtibia 30.5434
rfoot -4.19198 -3.94968
rtoes 0.289029
lfemur 11.4059 -5.92348 -21.4213
ltibia 38.7465
lfoot 5.47119 -17.3302
ltoes -31.9706
390
root 0.565831 17.8523 39.2361 -2.57762 1.69625 -1.90742
lowerback 7.42351 -1.93597 -0.969372
upperback -0.467459 -2.51303 3.39348
thorax -4.45613 -1.1844 4.35791
lowerneck -15.8866 -2.87894 -1.84974
upperneck 20.6459 -3.72962 0.807709
head 9.16207 -1.80501 0.117384
rclavicle -7.50461e-015 1.66979e-014
rhumerus -37.2576 -19.491 -74.8185
rradius 25.6919
rwrist 6.11193
rhand -12.043 21.6726
rfingers 7.12502
rthumb 14.0156 -7.83489
lclavicle -7.50461e-015 1.66979e-014
lhumerus -35.1987 -2.64105 83.3443
lradius 32.3638
lwrist 3.04658
lhand -22.6932 28.7519
lfingers 7.12502
lthumb 3.73937 58.6988
rfemur -23.8293 5.16845 25.5029
rtibia 30.6336
rfoot -4.11212 -4.00506
rtoes 1.06896
lfemur 10.3397 -6.08535 -20.6322
ltibia 41.1351
lfoot 7.53432 -18.8012
ltoes -29.338
391
root 0.537847 17.9358 39.4326 -2.60642 1.79155 -2.35222
lowerback 7.43199 -1.94184 -0.562826
upperback -0.360735 -2.48351 3.46392
thorax -4.36603 -1.18092 4.1954
lowerneck -16.2788 -2.88229 -1.64559
upperneck 20.5453 -3.74211 0.65551
head 9.19186 -1.80944 0.0250099
rclavicle -1.28309e-014 7.95139e-016
rhumerus -37.0512 -19.3324 -75.1542
rradius 25.8049
rwrist 5.83288
rhand -12.267 22.0306
rfingers 7.12502
rthumb 13.7997 -7.49167
lclavicle -1.28309e-014 7.95139e-016
lhumerus -35.2832 -2.80691 83.5065
lradius 32.1366
lwrist 3.17854
lhand -22.5017 28.6704
lfingers 7.12502
lthumb 3.92428 58.614
rfemur -23.0462 5.17547 26.2107
rtibia 30.6605
rfoot -4.39624 -4.12442
rtoes 1.33284
lfemur 7.83258 -5.92278 -19.7799
ltibia 43.6889
lfoot 12.4595 -19.5419
ltoes -20.3768
392
root 0.518495 17.9275 39.6196 -2.66115 1.89657 -2.76969
lowerback 7.32004 -1.94266 -0.121506
upperback -0.143706 -2.45094 3.51117
thorax -4.09577 -1.17979 3.97921
lowerneck -16.7589 -2.9298 -1.61126
upperneck 20.3705 -3.82503 0.74214
head 9.22143 -1.83316 0.0324969
rclavicle -2.49972e-014 2.46493e-014
rhumerus -36.5933 -19.0235 -75.6054
rradius 25.7331
rwrist 5.46446
rhand -12.573 22.9688
rfingers 7.12502
rthumb 13.5048 -6.57333
lclavicle -2.49972e-014 2.46493e-014
lhumerus -35.1425 -2.83414 83.5801
lradius 31.9233
lwrist 3.04017
lhand -21.7313 29.4181
lfingers 7.12502
lthumb 4.66818 59.3467
rfemur -22.4047 4.9956 26.8824
rtibia 30.7343
rfoot -4.86161 -4.16487
rtoes 0.777373
lfemur 7.0048 -6.00093 -19.0302
ltibia 46.0697
lfoot 13.7598 -20.8875
ltoes -20.2964
